<?xml version="1.0" encoding="UTF-8"?>
<svg version="1.1" xmlns="http://www.w3.org/2000/svg" viewBox="49 35 163 150" width="163" height="150">
<path d="M 0 0 C 3.875 -0.375 3.875 -0.375 6.324 -0.277 C 10.249 0.129 13.957 0.861 17.762 1.91 C 22.57 3.528 27.048 5.5 31.539 7.859 C 33.923 9.264 36.115 10.785 38.273 12.516 C 42.316 15.976 45.926 19.719 49.348 23.801 C 52.485 27.946 55.277 32.24 57.75 36.813 C 60.156 41.9 61.694 47.195 63.203 52.605 C 64.024 56.102 64.761 59.413 65 63 C 63.541 64.232 62.07 65.458 60.512 66.563 C 60.013 67.037 59.514 67.511 59 68 C 58.012 70.061 58.012 70.061 57.5 72.375 C 57.077 74.704 57.077 74.704 57 77 C 57.309 78.856 57.309 78.856 57.625 80.75 C 58.079 81.823 58.533 82.895 59 84 C 60.287 85.703 59.895 86.177 61.284 87.798 C 61.284 88.458 62.908 89.92 62.908 90.6 C 63.487 90.878 64.818 92.155 65.904 93.214 C 67.641 94.908 68.439 94.847 70.473 96.168 C 72.682 97.557 75.265 98.126 77.625 99.25 C 80.043 100.05 80.043 100.05 82.75 100.625 C 85.914 100.99 89.032 101.253 92.219 101.242 C 96.534 100.866 100.741 99.903 104.947 98.892 C 106.615 98.512 108.308 98.247 110 98 C 110.66 98.66 111.32 99.32 112 100 C 111.934 101.135 111.934 101.135 111.867 102.293 C 111.581 103.186 111.295 104.08 111 105 C 109.098 107.96 106.936 110.535 104.656 113.215 C 102.11 115.885 99.564 118.15 96.625 120.375 C 92.981 122.862 89.296 124.98 85.313 126.875 C 82.312 128.132 79.339 129.22 76.25 130.25 C 71.189 131.326 66.029 131.684 60.871 131.965 C 57.281 131.997 53.929 131.799 50.375 131.313 C 43.743 130.094 37.321 128.349 31 126 C 28.922 125.168 28.922 125.168 27.313 124.313 C 26.549 123.549 25.786 122.786 25 122 C 24.335 119.722 23.931 117.463 23.527 115.125 C 23.353 114.424 23.179 113.723 23 113 C 22.34 112.175 21.68 111.35 21 110.5 C 20.01 110.005 19.02 109.51 18 109 C 15.804 108.357 15.804 108.357 13.375 108 C 10.727 107.792 10.727 107.792 8 108 C 5.195 108.549 5.195 108.549 2.438 109.5 C -0.347 110.656 -2.893 111.937 -5.484 113.477 C -7.834 115.094 -7.834 115.094 -9.996 116.945 C -12.068 118.974 -12.068 118.974 -13.785 121.43 C -15.316 123.905 -16.69 126.401 -18 129 C -18.577 130.134 -19.155 131.269 -19.75 132.438 C -20.868 135.624 -21.499 138.498 -22.062 141.813 C -22.266 143.214 -22.266 143.214 -22.473 144.645 C -22.647 145.422 -22.821 146.199 -23 147 C -23.99 147.99 -23.99 147.99 -25 149 C -25.648 148.965 -26.297 148.93 -26.965 148.895 C -27.972 148.452 -27.972 148.452 -29 148 C -29.455 147.385 -29.91 146.77 -30.379 146.137 C -32.528 141.689 -34.411 137.242 -35.812 132.5 C -36.615 128.91 -37.095 125.392 -37.32 121.727 C -37.491 117.131 -37.436 112.58 -37 108 C -36.359 104.317 -35.495 100.923 -34.324 97.375 C -31.946 91.314 -29.298 85.618 -26 80 C -23.575 76.405 -20.966 73.162 -18 70 C -14.807 66.821 -11.614 63.698 -8 61 C -7.308 60.731 -6.616 60.461 -5.902 60.184 C -5.275 60.123 -4.647 60.062 -4 60 C -2.948 60.371 -1.896 60.743 -0.812 61.125 C 1.075 61.558 1.075 61.558 3 62 C 5.414 61.694 5.414 61.694 7.813 60.938 C 10.095 60.132 10.095 60.132 12 59 C 12.474 58.175 12.949 57.35 13.438 56.5 C 13.716 55.263 14.443 54.982 14.727 53.719 C 15.387 52.729 15.32 52.02 16 51 C 16.663 48.649 16.663 48.649 17 46 C 17.353 41.632 17.355 37.369 17 33 C 16.318 30.03 15.427 27.374 14.258 24.563 C 12.62 21.226 10.856 18.115 8.723 15.07 C 6.868 12.841 4.89 11.008 2.688 9.125 C 2.011 8.591 1.334 8.058 0.637 7.508 C -0.173 6.761 -0.173 6.761 -1 6 C -1.495 4.515 -1.495 4.515 -2 3 C -1.34 2.01 -0.68 1.02 0 0 Z M 12 8 C 12.688 8.982 12.688 8.982 13.391 9.984 C 15.377 12.938 17.239 15.906 19 19 C 20.312 21.961 21.353 24.862 22.277 27.965 C 22.996 30.982 23.556 33.922 23.938 37 C 24.094 39.988 24.094 39.988 24 43 C 23.585 46.171 22.963 49.099 22.066 52.168 C 21.019 54.949 19.88 57.438 18.375 60 C 16.801 62.152 16.801 62.152 15 64 C 12.855 65.441 12.855 65.441 10.563 66.563 C 8.242 67.422 8.242 67.422 6 68 C 4.113 68.155 4.113 68.155 2.188 68.313 C 1.136 68.209 0.084 68.106 -1 68 C -1.646 67.767 -2.292 67.533 -2.957 67.293 C -3.631 67.196 -4.305 67.1 -5 67 C -5.637 67.392 -6.274 67.784 -6.93 68.188 C -8.982 70.1 -11.015 72.018 -13 74 C -13.518 74.507 -14.036 75.013 -14.57 75.535 C -16.205 77.281 -17.609 79.05 -19 81 C -22.394 86.381 -25.657 91.825 -28.141 97.695 C -29.19 100.73 -29.937 103.675 -30.551 106.828 C -31.195 111.38 -31.254 115.838 -31.234 120.43 C -31.09 123.95 -31.09 123.95 -30.328 127.133 C -29.626 129.459 -28.877 131.734 -28 134 C -27.01 133.01 -27.01 133.01 -26 132 C -25.378 130.663 -24.8 129.306 -24.25 127.938 C -22.792 124.61 -21.226 121.465 -19.312 118.375 C -17.758 116.137 -17.758 116.137 -16 114 C -13.889 111.98 -11.737 110.223 -9.375 108.504 C -6.373 106.603 -3.317 105.098 -0.043 103.727 C 1.974 103.009 3.902 102.427 6 102 C 9.361 101.703 12.637 101.737 16 102 C 18.219 102.391 18.219 102.391 20.25 103 C 22.176 103.824 22.176 103.824 24 105 C 25.836 106.812 27.348 108.69 28.871 110.77 C 29.244 111.506 29.616 112.242 30 113 C 30.66 116.262 30.66 116.262 31 119 C 33.249 119.815 35.499 120.627 37.75 121.438 C 38.384 121.668 39.018 121.898 39.672 122.135 C 42.758 123.244 45.792 124.316 49 125 C 55.948 125.565 63.05 125.485 70 125 C 73.842 124.403 73.842 124.403 77.188 123.375 C 80.221 122.268 83.005 120.997 85.867 119.504 C 88.315 118.081 90.671 116.609 93 115 C 93.752 114.486 94.503 113.971 95.277 113.441 C 95.846 112.966 96.414 112.49 97 112 C 97.759 111.205 97.778 111.411 98.136 110.981 C 98.688 110.317 98.63 110.412 99.105 109.707 C 99.435 108.717 99.66 108.02 100 107 C 98.996 107.046 97.992 107.093 96.957 107.141 C 92.628 107.281 88.322 107.321 84 107 C 80.532 106.374 77.384 105.506 74.059 104.348 C 69.79 102.467 65.932 100.157 62.047 97.586 C 61.371 97.063 60.696 96.539 60 96 C 59.67 95.34 58.678 94.292 58.338 93.612 C 57.678 93.612 55.804 89.764 55.124 89.764 C 52.807 85.203 52.541 84.888 51 80 C 50.602 77.629 50.602 77.629 50.5 75.375 C 50.605 73.176 50.605 73.176 51 71 C 51.79 68.761 52.725 66.728 53.832 64.629 C 54.217 64.091 54.603 63.554 55 63 C 55.99 62.34 56.98 61.68 58 61 C 57.837 58.223 57.555 55.72 57 53 C 55.292 47.579 53.185 42.381 50.652 37.293 C 48.65 33.751 46.439 30.549 43.898 27.371 C 41.088 24.131 38.2 21.069 34.996 18.215 C 32.294 16.08 29.5 14.29 26.523 12.563 C 24.046 11.245 21.603 10.046 19 9 C 16.604 8.419 14.47 8.161 12 8 Z" fill="#f0956a" transform="translate(86,35)"></path>
<path d="M0 0 C2.34765625 -0.1953125 2.34765625 -0.1953125 4.6875 -0.0625 C6.953125 0.3203125 6.953125 0.3203125 9 1 C10.4540625 2.1446875 10.4540625 2.1446875 11.9375 3.3125 C13.0790352221 4.7999549864 14.2127941022 6.2938585221 15.3125 7.8125 C15.539375 8.534375 15.76625 9.25625 16 10 C16.3125 13.9375 16.3125 13.9375 16.25 16.04296875 C16.1675 16.6887890625 16.085 17.334609375 16 18 C15.608125 18.9075 15.21625 19.815 14.8125 20.75 C13 23 13 23 10.6875 25.25 C9.800625 25.8275 8.91375 26.405 8 27 C7.05125 27.28875 6.1025 27.5775 5.125 27.875 C3.578125 27.936875 3.578125 27.936875 2 28 C0.824375 27.814375 -0.35125 27.62875 -1.5625 27.4375 C-2.696875 26.963125 -3.83125 26.48875 -5 26 C-6.51953125 24.59765625 -6.51953125 24.59765625 -7.875 23 C-10 20 -10 20 -11 18 C-11.1863537925 15.2046931119 -11.2679930017 12.7623894023 -11 10 C-10.67 8.9275 -10.34 7.855 -10 6.75 C-9.34 5.8425 -8.68 4.935 -8 4 C-6.3359375 2.70703125 -6.3359375 2.70703125 -4.375 1.5625 C-2.25390625 0.6328125 -2.25390625 0.6328125 0 0 Z M-1 7 C-1.61875 7.37125 -2.2375 7.7425 -2.875 8.125 C-3.431875 9.053125 -3.431875 9.053125 -4 10 C-4.309375 10.94875 -4.61875 11.8975 -4.9375 12.875 C-4.958125 13.90625 -4.97875 14.9375 -5 16 C-4.2575 17.423125 -4.2575 17.423125 -3.5 18.875 C-2.675 19.57625 -1.85 20.2775 -1 21 C0.155 21.20625 1.31 21.4125 2.5 21.625 C3.655 21.41875 4.81 21.2125 6 21 C6.825 20.319375 7.65 19.63875 8.5 18.9375 C8.995 17.968125 9.49 16.99875 10 16 C9.979375 14.783125 9.95875 13.56625 9.9375 12.3125 C9.628125 11.219375 9.31875 10.12625 9 9 C8.01 8.34 7.02 7.68 6 7 C4.2675 6.8453125 4.2675 6.8453125 2.5 6.6875 C1.345 6.790625 0.19 6.89375 -1 7 Z " fill="#f0956a" transform="translate(112,103)"></path>
</svg>